HIERARCHY
ROOT Hips
{
	OFFSET 0.000000 100.481300 0.000000
	CHANNELS 6 Xposition Yposition Zposition Xrotation Yrotation Zrotation 
	JOINT Spine
	{
		OFFSET -0.279200 12.230698 -2.892100
		CHANNELS 3 Xrotation Yrotation Zrotation
		JOINT Spine1
		{
			OFFSET -0.232667 10.192268 -1.242267
			CHANNELS 3 Xrotation Yrotation Zrotation
			JOINT Spine1_split
			{
				OFFSET -0.232667 10.192268 -1.242267
				CHANNELS 3 Xrotation Yrotation Zrotation
				JOINT Spine2
				{
					OFFSET -0.232667 10.192268 -1.242267
					CHANNELS 3 Xrotation Yrotation Zrotation
					JOINT Neck
					{
						OFFSET -0.418800 17.814194 8.416900
						CHANNELS 3 Xrotation Yrotation Zrotation
						JOINT Head
						{
							OFFSET 0.000000 7.031097 3.806800
							CHANNELS 3 Xrotation Yrotation Zrotation
							JOINT HeadTop_End
							{
								OFFSET 0.000000 24.646606 12.978600
								CHANNELS 3 Xrotation Yrotation Zrotation
								End Site
								{
									OFFSET 0.000000 0.000000 0.000000
								}
							}
						}
					}
					JOINT LeftShoulder
					{
						OFFSET 8.476499 7.247704 -3.868750
						CHANNELS 3 Xrotation Yrotation Zrotation
						JOINT LeftShoulder_split
						{
							OFFSET 8.476499 7.247704 -3.868750
							CHANNELS 3 Xrotation Yrotation Zrotation
							JOINT LeftArm
							{
								OFFSET 9.308998 -2.777710 0.208600
								CHANNELS 3 Xrotation Yrotation Zrotation
								JOINT LeftForeArm
								{
									OFFSET 29.972298 0.000000 0.000000
									CHANNELS 3 Xrotation Yrotation Zrotation
									JOINT LeftHand
									{
										OFFSET 26.026505 0.000000 0.000000
										CHANNELS 3 Xrotation Yrotation Zrotation
										JOINT LeftHandThumb1
										{
											OFFSET 12.240501 -7.147949 9.207150
											CHANNELS 3 Xrotation Yrotation Zrotation
											JOINT LeftHandThumb2
											{
												OFFSET 4.138618 -2.389435 2.389433
												CHANNELS 3 Xrotation Yrotation Zrotation
												JOINT LeftHandThumb3
												{
													OFFSET 2.726913 -1.574387 1.574386
													CHANNELS 3 Xrotation Yrotation Zrotation
													JOINT LeftHandThumb4
													{
														OFFSET 3.941010 -2.275345 2.275342
														CHANNELS 3 Xrotation Yrotation Zrotation
														End Site
														{
															OFFSET 0.000000 0.000000 0.000000
														}
													}
												}
											}
										}
										JOINT LeftHandIndex1
										{
											OFFSET 24.424698 -1.985611 5.953459
											CHANNELS 3 Xrotation Yrotation Zrotation
											JOINT LeftHandIndex2
											{
												OFFSET 6.426697 0.000000 0.000000
												CHANNELS 3 Xrotation Yrotation Zrotation
												JOINT LeftHandIndex3
												{
													OFFSET 5.337898 0.000000 0.000000
													CHANNELS 3 Xrotation Yrotation Zrotation
													JOINT LeftHandIndex4
													{
														OFFSET 4.409401 0.000000 0.000000
														CHANNELS 3 Xrotation Yrotation Zrotation
														End Site
														{
															OFFSET 0.000000 0.000000 0.000000
														}
													}
												}
											}
										}
										JOINT LeftHandMiddle1
										{
											OFFSET 23.810104 0.000000 0.000000
											CHANNELS 3 Xrotation Yrotation Zrotation
											JOINT LeftHandMiddle2
											{
												OFFSET 7.176498 0.000000 0.000000
												CHANNELS 3 Xrotation Yrotation Zrotation
												JOINT LeftHandMiddle3
												{
													OFFSET 6.774902 0.000000 0.000000
													CHANNELS 3 Xrotation Yrotation Zrotation
													JOINT LeftHandMiddle4
													{
														OFFSET 5.403328 0.000000 0.000000
														CHANNELS 3 Xrotation Yrotation Zrotation
														End Site
														{
															OFFSET 0.000000 0.000000 0.000000
														}
													}
												}
											}
										}
										JOINT LeftHandRing1
										{
											OFFSET 22.908401 -0.839279 -6.020567
											CHANNELS 3 Xrotation Yrotation Zrotation
											JOINT LeftHandRing2
											{
												OFFSET 6.337502 0.000000 0.000000
												CHANNELS 3 Xrotation Yrotation Zrotation
												JOINT LeftHandRing3
												{
													OFFSET 5.779297 0.000000 0.000000
													CHANNELS 3 Xrotation Yrotation Zrotation
													JOINT LeftHandRing4
													{
														OFFSET 4.965698 0.000000 0.000000
														CHANNELS 3 Xrotation Yrotation Zrotation
														End Site
														{
															OFFSET 0.000000 0.000000 0.000000
														}
													}
												}
											}
										}
										JOINT LeftHandPinky1
										{
											OFFSET 20.037003 -1.530319 -10.950146
											CHANNELS 3 Xrotation Yrotation Zrotation
											JOINT LeftHandPinky2
											{
												OFFSET 5.254700 0.000000 0.000000
												CHANNELS 3 Xrotation Yrotation Zrotation
												JOINT LeftHandPinky3
												{
													OFFSET 4.810204 0.000000 0.000000
													CHANNELS 3 Xrotation Yrotation Zrotation
													JOINT LeftHandPinky4
													{
														OFFSET 3.647202 0.000000 0.000000
														CHANNELS 3 Xrotation Yrotation Zrotation
														End Site
														{
															OFFSET 0.000000 0.000000 0.000000
														}
													}
												}
											}
										}
									}
								}
							}
						}
					}
					JOINT RightShoulder
					{
						OFFSET -7.570500 7.247704 -3.868750
						CHANNELS 3 Xrotation Yrotation Zrotation
						JOINT RightShoulder_split
						{
							OFFSET -7.570500 7.247704 -3.868750
							CHANNELS 3 Xrotation Yrotation Zrotation
							JOINT RightArm
							{
								OFFSET -9.308998 -2.777710 0.208500
								CHANNELS 3 Xrotation Yrotation Zrotation
								JOINT RightForeArm
								{
									OFFSET -29.972300 0.000000 0.000000
									CHANNELS 3 Xrotation Yrotation Zrotation
									JOINT RightHand
									{
										OFFSET -26.026505 0.000000 0.000000
										CHANNELS 3 Xrotation Yrotation Zrotation
										JOINT RightHandThumb1
										{
											OFFSET -12.240601 -7.148026 9.207092
											CHANNELS 3 Xrotation Yrotation Zrotation
											JOINT RightHandThumb2
											{
												OFFSET -4.138618 -2.389435 2.389433
												CHANNELS 3 Xrotation Yrotation Zrotation
												JOINT RightHandThumb3
												{
													OFFSET -2.726974 -1.574417 1.574421
													CHANNELS 3 Xrotation Yrotation Zrotation
													JOINT RightHandThumb4
													{
														OFFSET -3.941010 -2.275345 2.275343
														CHANNELS 3 Xrotation Yrotation Zrotation
														End Site
														{
															OFFSET 0.000000 0.000000 0.000000
														}
													}
												}
											}
										}
										JOINT RightHandIndex1
										{
											OFFSET -24.424698 -1.985657 5.953444
											CHANNELS 3 Xrotation Yrotation Zrotation
											JOINT RightHandIndex2
											{
												OFFSET -6.426697 0.000000 0.000000
												CHANNELS 3 Xrotation Yrotation Zrotation
												JOINT RightHandIndex3
												{
													OFFSET -5.337898 0.000000 0.000000
													CHANNELS 3 Xrotation Yrotation Zrotation
													JOINT RightHandIndex4
													{
														OFFSET -4.409401 0.000000 0.000000
														CHANNELS 3 Xrotation Yrotation Zrotation
														End Site
														{
															OFFSET 0.000000 0.000000 0.000000
														}
													}
												}
											}
										}
										JOINT RightHandMiddle1
										{
											OFFSET -23.810097 0.000000 0.000000
											CHANNELS 3 Xrotation Yrotation Zrotation
											JOINT RightHandMiddle2
											{
												OFFSET -7.176498 0.000000 0.000000
												CHANNELS 3 Xrotation Yrotation Zrotation
												JOINT RightHandMiddle3
												{
													OFFSET -6.774902 0.000000 0.000000
													CHANNELS 3 Xrotation Yrotation Zrotation
													JOINT RightHandMiddle4
													{
														OFFSET -5.403328 0.000000 0.000000
														CHANNELS 3 Xrotation Yrotation Zrotation
														End Site
														{
															OFFSET 0.000000 0.000000 0.000000
														}
													}
												}
											}
										}
										JOINT RightHandRing1
										{
											OFFSET -22.908302 -0.839325 -6.020576
											CHANNELS 3 Xrotation Yrotation Zrotation
											JOINT RightHandRing2
											{
												OFFSET -6.337502 0.000000 0.000000
												CHANNELS 3 Xrotation Yrotation Zrotation
												JOINT RightHandRing3
												{
													OFFSET -5.779297 0.000000 0.000000
													CHANNELS 3 Xrotation Yrotation Zrotation
													JOINT RightHandRing4
													{
														OFFSET -4.965698 0.000000 0.000000
														CHANNELS 3 Xrotation Yrotation Zrotation
														End Site
														{
															OFFSET 0.000000 0.000000 0.000000
														}
													}
												}
											}
										}
										JOINT RightHandPinky1
										{
											OFFSET -20.037003 -1.530334 -10.950259
											CHANNELS 3 Xrotation Yrotation Zrotation
											JOINT RightHandPinky2
											{
												OFFSET -5.254700 0.000000 0.000000
												CHANNELS 3 Xrotation Yrotation Zrotation
												JOINT RightHandPinky3
												{
													OFFSET -4.810204 0.000000 0.000000
													CHANNELS 3 Xrotation Yrotation Zrotation
													JOINT RightHandPinky4
													{
														OFFSET -3.647202 0.000000 0.000000
														CHANNELS 3 Xrotation Yrotation Zrotation
														End Site
														{
															OFFSET 0.000000 0.000000 0.000000
														}
													}
												}
											}
										}
									}
								}
							}
						}
					}
				}
			}
		}
	}
	JOINT LeftUpLeg
	{
		OFFSET 15.427100 -6.655098 0.678600
		CHANNELS 3 Xrotation Yrotation Zrotation
		JOINT LeftLeg
		{
			OFFSET 4.081073 -39.591068 13.024000
			CHANNELS 3 Xrotation Yrotation Zrotation
			JOINT LeftFoot
			{
				OFFSET -4.081074 -37.707932 -15.979700
				CHANNELS 3 Xrotation Yrotation Zrotation
				JOINT LeftToeBase
				{
					OFFSET 5.346399 -15.068900 20.645000
					CHANNELS 3 Xrotation Yrotation Zrotation
					JOINT LeftToe_End
					{
						OFFSET 2.754700 0.931300 11.300900
						CHANNELS 3 Xrotation Yrotation Zrotation
						End Site
						{
							OFFSET 0.000000 0.000000 0.000000
						}
					}
				}
			}
		}
	}
	JOINT RightUpLeg
	{
		OFFSET -15.569500 -6.655098 0.678600
		CHANNELS 3 Xrotation Yrotation Zrotation
		JOINT RightLeg
		{
			OFFSET -4.081825 -39.591045 13.023800
			CHANNELS 3 Xrotation Yrotation Zrotation
			JOINT RightFoot
			{
				OFFSET 4.081824 -37.707954 -15.979600
				CHANNELS 3 Xrotation Yrotation Zrotation
				JOINT RightToeBase
				{
					OFFSET -5.346400 -15.068900 20.645000
					CHANNELS 3 Xrotation Yrotation Zrotation
					JOINT RightToe_End
					{
						OFFSET -2.754700 0.931300 11.300900
						CHANNELS 3 Xrotation Yrotation Zrotation
						End Site
						{
							OFFSET 0.000000 0.000000 0.000000
						}
					}
				}
			}
		}
	}
}
MOTION
Frames: 4
Frame Time: 0.016667
-0.009954 87.168236 -0.775056 -10.837438 -54.672813 -6.223483 5.275293 0.520791 -0.174046 4.893951 1.120456 0.299612 0.000000 0.000000 0.000000 8.444755 1.036549 0.033107 2.537413 5.572981 -0.185907 2.372535 37.187201 -7.338936 0.000001 0.000000 0.000001 9.150566 -24.592600 -2.246833 0.000000 0.000000 0.000000 -26.053183 8.217162 -60.618824 -91.270179 13.114376 -86.117101 -27.757931 -7.625869 -6.300472 0.699132 9.503390 -2.418118 5.975196 12.647536 1.348336 -23.873558 -17.664220 1.604934 0.000000 -0.000002 -0.000001 9.479713 -1.289770 -20.785560 0.709482 2.796405 -28.467078 0.714009 2.804784 -28.559733 -0.000002 0.000001 -0.000000 10.058156 -1.800599 -20.644711 1.774260 4.200480 -45.782065 1.632179 4.057795 -43.809393 0.000001 -0.000001 0.000000 1.254225 -0.073706 -17.945779 3.754102 5.463632 -68.965308 5.298509 9.638368 -33.747053 0.000001 -0.000000 0.000002 -7.938253 1.609090 -6.495674 2.210565 4.583643 -51.475161 0.883828 3.096067 -31.858140 0.000001 0.000001 0.000000 10.411185 20.330616 -1.369223 0.000000 0.000000 0.000000 3.446553 33.597031 47.887870 68.289809 116.117464 -81.856252 -10.139727 21.396992 14.282943 13.942495 -4.273677 -5.300351 7.113183 -20.767445 -2.619507 -3.463300 -24.899774 -18.660463 -0.000001 0.000002 -0.000001 0.357763 -5.832700 5.175840 0.094361 -0.933675 11.539909 0.777640 -2.578463 33.559947 0.000000 0.000000 -0.000000 3.764098 -12.080463 1.143762 5.714269 -4.535847 103.133562 3.160520 -4.410596 71.234973 -0.000001 0.000000 0.000000 -12.155593 -12.623911 9.228344 6.566853 -4.248459 114.232359 3.755170 -4.569211 78.819673 0.000001 -0.000000 -0.000001 -17.635769 -10.496861 3.325422 4.993643 -4.645055 94.147929 3.647337 -4.546596 77.463423 -0.000001 0.000001 0.000000 -21.420537 12.055329 20.175469 29.001028 11.534037 -1.220706 3.158694 2.057876 -13.414153 -0.232877 0.098983 0.168374 0.000000 -0.000000 -0.000000 -17.637159 -18.430666 -24.845039 35.337930 -1.414726 -2.021329 -12.761526 -0.292153 13.402238 2.381842 2.212588 2.920830 0.000000 -0.000000 -0.000000 
-0.052570 86.818016 -0.237946 -10.399857 -53.258257 -5.786023 5.219219 0.443002 -0.045956 4.881397 0.959835 0.315642 0.000000 0.000000 0.000000 8.443275 1.126748 0.051355 2.560040 5.635932 -0.196400 2.510867 38.008101 -7.338060 0.000000 -0.000000 -0.000001 8.936013 -24.743206 -2.968072 0.000000 0.000000 0.000000 -26.604866 8.959837 -60.009796 -91.306051 12.800223 -85.897600 -27.851664 -7.038019 -5.777696 0.699133 9.503394 -2.418116 5.975198 12.647541 1.348337 -23.873558 -17.664218 1.604929 0.000000 -0.000000 0.000000 9.479716 -1.289764 -20.785558 0.709481 2.796407 -28.467084 0.714014 2.804781 -28.559733 -0.000003 -0.000001 0.000001 10.058159 -1.800597 -20.644710 1.774262 4.200481 -45.782068 1.632186 4.057795 -43.809397 -0.000002 0.000000 -0.000000 1.254226 -0.073702 -17.945777 3.754102 5.463633 -68.965301 5.298513 9.638366 -33.747053 0.000002 -0.000000 -0.000003 -7.938253 1.609094 -6.495671 2.210564 4.583641 -51.475157 0.883827 3.096071 -31.858140 0.000003 0.000002 -0.000001 10.571300 20.013229 -2.157006 0.000000 0.000000 0.000000 3.272278 35.427536 47.123982 70.645951 116.398882 -84.504268 -10.445505 22.183749 13.476897 13.942498 -4.273677 -5.300352 7.113184 -20.767445 -2.619509 -3.463301 -24.899779 -18.660461 -0.000002 0.000001 -0.000001 0.357761 -5.832700 5.175840 0.094359 -0.933673 11.539905 0.777642 -2.578462 33.559950 0.000000 -0.000000 0.000001 3.764098 -12.080463 1.143761 5.714268 -4.535847 103.133555 3.160520 -4.410596 71.234980 -0.000000 -0.000001 0.000000 -12.155595 -12.623912 9.228346 6.566850 -4.248459 114.232366 3.755167 -4.569212 78.819666 -0.000001 0.000000 -0.000001 -17.635772 -10.496858 3.325421 4.993644 -4.645054 94.147935 3.647337 -4.546597 77.463429 -0.000000 0.000001 0.000001 -22.387750 11.896829 19.726273 29.998338 10.471481 -1.398141 2.528770 1.935529 -12.618389 -0.208691 0.105899 0.150993 0.000000 0.000000 -0.000000 -16.934194 -16.793977 -25.305286 36.827700 -3.289422 -0.798416 -13.891987 -0.155313 12.032614 2.853608 0.034067 4.198982 0.000000 0.000000 0.000000 
-0.114643 86.170174 0.244944 -9.990565 -51.849049 -5.293809 5.208911 0.431166 -0.092350 4.875920 0.893830 0.313337 0.000000 0.000000 0.000000 8.471693 1.741699 0.006404 2.611691 5.795499 -0.175229 2.871613 40.218514 -7.339841 0.000000 -0.000000 -0.000000 8.936014 -24.743303 -2.968066 0.000000 0.000000 0.000000 -27.022576 9.098560 -59.788751 -91.418134 12.788556 -85.389714 -28.033241 -6.726858 -5.796748 0.699132 9.503389 -2.418115 5.975198 12.647533 1.348334 -23.873560 -17.664218 1.604934 0.000000 0.000001 0.000001 9.479713 -1.289768 -20.785557 0.709480 2.796405 -28.467081 0.714011 2.804783 -28.559733 0.000001 -0.000000 0.000000 10.058159 -1.800595 -20.644713 1.774260 4.200479 -45.782068 1.632181 4.057794 -43.809397 0.000001 0.000000 0.000002 1.254225 -0.073705 -17.945777 3.754099 5.463630 -68.965308 5.298516 9.638365 -33.747053 -0.000002 0.000001 0.000002 -7.938254 1.609090 -6.495673 2.210567 4.583645 -51.475161 0.883829 3.096070 -31.858140 -0.000001 0.000003 -0.000001 10.565201 19.946548 -2.142263 0.000000 0.000000 0.000000 2.607382 35.855146 47.333556 71.764661 116.208401 -85.770988 -10.570368 21.998950 13.615176 13.942496 -4.273675 -5.300351 7.113183 -20.767446 -2.619508 -3.463301 -24.899776 -18.660458 -0.000000 0.000001 -0.000003 0.357762 -5.832699 5.175840 0.094359 -0.933673 11.539909 0.777640 -2.578464 33.559943 0.000000 0.000001 -0.000001 3.764098 -12.080461 1.143761 5.714268 -4.535847 103.133562 3.160520 -4.410596 71.234973 0.000000 -0.000000 0.000000 -12.155592 -12.623910 9.228345 6.566852 -4.248458 114.232366 3.755168 -4.569211 78.819666 0.000002 -0.000001 -0.000002 -17.635765 -10.496860 3.325420 4.993645 -4.645054 94.147929 3.647337 -4.546600 77.463429 -0.000001 0.000001 -0.000001 -23.640538 11.642279 19.380505 31.558278 9.342023 -1.698876 1.711888 1.844317 -11.849589 -0.190600 0.111293 0.137824 -0.000000 -0.000000 -0.000000 -17.495629 -14.181090 -26.171787 40.246616 -4.482405 0.032232 -13.056938 -0.556697 11.966964 2.846828 -2.358982 5.168862 -0.000000 -0.000000 -0.000000 
-0.176161 85.480621 0.777371 -9.604970 -50.434100 -4.840788 5.207846 0.423502 -0.159979 4.870110 0.829818 0.304667 0.000000 0.000000 0.000000 8.520205 2.710896 -0.072871 2.689526 6.030632 -0.142779 3.412326 43.413949 -7.365487 -0.000001 0.000000 0.000001 8.936031 -24.743289 -2.968069 0.000000 0.000000 0.000000 -27.403882 9.241072 -59.623057 -91.512835 12.777830 -84.960511 -28.164036 -6.454045 -5.810560 0.699132 9.503389 -2.418117 5.975198 12.647541 1.348336 -23.873560 -17.664218 1.604935 0.000003 0.000002 0.000002 9.479713 -1.289768 -20.785558 0.709482 2.796401 -28.467084 0.714013 2.804780 -28.559733 0.000001 0.000000 -0.000001 10.058160 -1.800602 -20.644706 1.774264 4.200480 -45.782068 1.632184 4.057797 -43.809393 -0.000001 0.000001 0.000001 1.254225 -0.073706 -17.945777 3.754101 5.463625 -68.965308 5.298513 9.638365 -33.747056 0.000003 0.000002 -0.000000 -7.938255 1.609087 -6.495676 2.210561 4.583645 -51.475161 0.883828 3.096068 -31.858140 0.000000 0.000002 0.000001 10.560321 19.868223 -2.125418 0.000000 0.000000 0.000000 2.003527 36.236100 47.517151 72.763590 116.049722 -86.902519 -10.678814 21.824908 13.770439 13.942499 -4.273673 -5.300352 7.113183 -20.767445 -2.619508 -3.463301 -24.899776 -18.660459 -0.000002 0.000001 0.000002 0.357764 -5.832700 5.175840 0.094359 -0.933673 11.539905 0.777640 -2.578462 33.559947 -0.000000 -0.000000 0.000000 3.764099 -12.080461 1.143761 5.714269 -4.535846 103.133562 3.160520 -4.410595 71.234973 0.000000 0.000000 -0.000000 -12.155594 -12.623911 9.228341 6.566854 -4.248459 114.232359 3.755166 -4.569213 78.819673 0.000000 -0.000001 -0.000000 -17.635767 -10.496861 3.325421 4.993645 -4.645055 94.147929 3.647337 -4.546596 77.463429 0.000000 0.000001 -0.000001 -24.895865 11.386999 19.066577 33.198981 8.213652 -2.083647 0.836340 1.734072 -11.010227 -0.178317 0.115126 0.128975 -0.000000 0.000001 -0.000000 -18.114693 -11.205179 -26.658358 43.814639 -5.548057 0.582740 -11.836623 -1.109662 12.183452 2.834830 -4.385072 6.111412 -0.000001 -0.000000 0.000000 
